PathFileType	4	(X/Y/Z)	/Users/itak/Documents/Research/Walk-IL/dataset/trc/00439_00167.trc
DataRate	CameraRate	NumFrames	NumMarkers	Units	OrigDataRate	OrigDataStartFrame	OrigNumFrames
100.000000	100.000000	4	53	mm	100.000000	392	523
Frame#	Time	RPSI			LPSI			L3			STRN			T10			C7			CLAV			RBAK			LBAK			LSHO			LUPA			LAEL			LAOL			LWTS			LWPS			LFRA			LIFD			LHPS			LHTS			RSHO			RUPA			RAEL			RAOL			RWTS			RWPS			RFRA			RIFD			RHTS			RHPS			RBHD			LFHD			RFHD			LBHD			LHIP			RHIP			RASI			LASI			LKNE			LTHI			LANK			LTIP			LTOE			LMT1			LMT5			LHEE			RKNE			RTHI			RANK			RTIP			RTOE			RMT1			RMT5			RHEE			
		X1	Y1	Z1	X2	Y2	Z2	X3	Y3	Z3	X4	Y4	Z4	X5	Y5	Z5	X6	Y6	Z6	X7	Y7	Z7	X8	Y8	Z8	X9	Y9	Z9	X10	Y10	Z10	X11	Y11	Z11	X12	Y12	Z12	X13	Y13	Z13	X14	Y14	Z14	X15	Y15	Z15	X16	Y16	Z16	X17	Y17	Z17	X18	Y18	Z18	X19	Y19	Z19	X20	Y20	Z20	X21	Y21	Z21	X22	Y22	Z22	X23	Y23	Z23	X24	Y24	Z24	X25	Y25	Z25	X26	Y26	Z26	X27	Y27	Z27	X28	Y28	Z28	X29	Y29	Z29	X30	Y30	Z30	X31	Y31	Z31	X32	Y32	Z32	X33	Y33	Z33	X34	Y34	Z34	X35	Y35	Z35	X36	Y36	Z36	X37	Y37	Z37	X38	Y38	Z38	X39	Y39	Z39	X40	Y40	Z40	X41	Y41	Z41	X42	Y42	Z42	X43	Y43	Z43	X44	Y44	Z44	X45	Y45	Z45	X46	Y46	Z46	X47	Y47	Z47	X48	Y48	Z48	X49	Y49	Z49	X50	Y50	Z50	X51	Y51	Z51	X52	Y52	Z52	X53	Y53	Z53	

393	3.92	1031.87890625	888.5718383789062	864.5498657226562	1134.48828125	878.4234619140625	767.1875610351562	1063.71044921875	980.0083618164062	837.4432983398438	1273.608276367188	1191.36669921875	997.509033203125	1040.23583984375	1103.039916992188	823.4637451171875	1077.129150390625	1373.027465820312	872.791259765625	1240.348022460938	1302.425048828125	967.2705078125	976.1956787109375	1250.818115234375	914.6845703125	1108.602294921875	1327.066650390625	774.3168334960938	1238.7490234375	1352.503051757812	766.4216918945312	1280.976440429688	1234.702880859375	677.385986328125	1310.115600585938	1019.909729003906	652.1903076171875	1207.821166992188	1008.865417480469	665.9906616210938	1338.830444335938	808.2203369140625	719.7991333007812	1333.322265625	799.14404296875	646.4735107421875	1327.978149414062	930.6973876953125	649.7721557617188	1320.396484375	640.073486328125	706.9696044921875	1326.581909179688	717.149169921875	645.9193115234375	1344.0908203125	716.1658935546875	714.7667236328125	1042.539916992188	1345.683837890625	1044.4892578125	986.1060791015625	1282.166137695312	1096.912475585938	963.3534545898438	996.1324462890625	1149.48193359375	942.0789794921875	980.1444091796875	1087.097412109375	1068.846313476562	794.2655029296875	1169.74853515625	983.4285278320312	780.6791381835938	1180.544311523438	960.68701171875	937.8883666992188	1159.567993164062	1062.314453125	635.6688232421875	1176.55859375	1071.727783203125	694.4177856445312	1189.208984375	995.997802734375	691.869873046875	1187.69677734375	1080.577758789062	1573.421997070312	970.870849609375	1282.154541015625	1599.873657226562	933.3121337890625	1199.619506835938	1602.889282226562	1033.857177734375	1179.557739257812	1572.518310546875	823.6696166992188	1330.080444335938	804.4173583984375	804.5693359375	998.5243530273438	794.5950317382812	1044.012084960938	1119.108764648438	832.8013916015625	1080.71875	1317.742797851562	852.475830078125	922.8453979492188	1464.974731445312	437.0532836914062	981.662841796875	1441.95458984375	585.4825439453125	927.5790405273438	1461.495727539062	21.63642120361328	966.107421875	1488.641357421875	278.7749328613281	987.3831176757812	1567.410888671875	29.37852478027344	1176.763671875	1496.454956054688	34.51301574707031	1143.307250976562	1573.951904296875	31.03559112548828	1061.796020507812	1389.316284179688	25.64620399475098	961.8009643554688	961.4757080078125	419.9980163574219	1005.03662109375	1041.301513671875	645.8624877929688	1092.581909179688	702.7371826171875	135.3278656005859	791.69482421875	874.7149047851562	312.5074157714844	950.6875610351562	866.3550415039062	34.40296173095703	828.9255981445312	844.8380737304688	51.50156402587891	776.596923828125	770.60009765625	46.79319000244141	854.5327758789062	691.1729736328125	186.2269592285156	729.2403564453125	
394	3.93	1041.177124023438	889.6513671875	868.560546875	1143.899780273438	880.1444702148438	771.1390380859375	1073.468017578125	981.747802734375	841.6361083984375	1283.60009765625	1192.623413085938	1001.662780761719	1050.1474609375	1104.729858398438	827.6625366210938	1087.21435546875	1374.594116210938	877.0712890625	1250.41162109375	1303.749267578125	971.5570678710938	986.1654663085938	1252.6103515625	918.8619384765625	1118.85888671875	1328.677978515625	778.4478759765625	1249.06591796875	1354.148681640625	770.8536376953125	1291.944580078125	1236.294921875	682.188720703125	1321.67333984375	1021.479370117188	657.6864624023438	1219.303100585938	1010.229858398438	670.8096313476562	1350.33740234375	809.8465576171875	725.7863159179688	1345.351318359375	800.7664184570312	652.42724609375	1339.70751953125	932.3065185546875	655.53515625	1331.623168945312	641.6239624023438	712.6298217773438	1338.503784179688	718.7806396484375	651.7660522460938	1355.444458007812	717.6729736328125	720.7562255859375	1052.901611328125	1346.8740234375	1048.934936523438	996.3504028320312	1283.314697265625	1101.131225585938	970.7745971679688	997.3936157226562	1150.93408203125	950.3980712890625	982.4318237304688	1088.018310546875	1070.981689453125	792.53515625	1170.605102539062	984.8927612304688	781.20166015625	1179.428833007812	966.5982055664062	939.115966796875	1160.263671875	1059.6552734375	634.1488037109375	1175.44140625	1070.6005859375	692.3594360351562	1188.956665039062	994.9669799804688	692.4246215820312	1186.109008789062	1090.104614257812	1574.62841796875	974.7781372070312	1291.721557617188	1601.633178710938	937.7391967773438	1208.949340820312	1604.504760742188	1038.107421875	1189.4677734375	1573.927001953125	827.8429565429688	1339.758178710938	805.8966674804688	808.4593505859375	1008.340515136719	795.0816040039062	1047.89697265625	1128.905151367188	833.7666625976562	1084.521484375	1327.315063476562	853.9039916992188	926.5472412109375	1472.096069335938	437.2169189453125	985.570556640625	1450.270751953125	585.869384765625	931.0879516601562	1461.733154296875	21.82645606994629	966.2883911132812	1493.1484375	278.2795715332031	989.8881225585938	1567.404052734375	28.17436408996582	1177.164428710938	1496.640502929688	34.04085922241211	1143.626342773438	1574.517211914062	30.44805908203125	1062.010498046875	1389.618896484375	25.88014221191406	961.9435424804688	971.5206298828125	420.9293212890625	1012.462280273438	1051.250854492188	646.6976318359375	1096.708618164062	709.263916015625	141.4041290283203	796.4463500976562	883.5081176757812	314.9567260742188	957.5181274414062	867.7891845703125	33.27924728393555	829.77978515625	847.7396240234375	52.39864730834961	778.5086059570312	773.7081909179688	48.21006393432617	856.552001953125	699.6013793945312	194.1477813720703	735.2353515625	
395	3.94	1050.277221679688	890.8361206054688	872.2680053710938	1153.265014648438	882.0232543945312	774.910400390625	1083.02197265625	983.625732421875	845.5493774414062	1293.253784179688	1194.00927734375	1005.790100097656	1059.973510742188	1106.650390625	831.7032470703125	1097.072875976562	1376.389770507812	881.2962036132812	1260.225830078125	1305.23046875	975.8170776367188	995.8876342773438	1254.643920898438	922.9448852539062	1128.931396484375	1330.502075195312	782.5169677734375	1259.176025390625	1355.989990234375	775.2642822265625	1302.7421875	1238.13232421875	686.9276733398438	1333.218505859375	1023.313537597656	663.06201171875	1230.782470703125	1011.76611328125	675.4921875	1362.103393554688	811.842041015625	731.8025512695312	1357.61669921875	802.6953125	658.4202880859375	1351.531494140625	934.2049560546875	661.2384643554688	1343.398681640625	643.5033569335938	718.4144897460938	1350.784301757812	720.711669921875	657.7008056640625	1367.223754882812	719.5580444335938	726.8223266601562	1063.030639648438	1348.3359375	1053.30908203125	1006.390197753906	1284.752685546875	1105.33056640625	978.218994140625	998.9853515625	1152.561157226562	958.6143188476562	985.0149536132812	1089.185791015625	1073.323120117188	791.3252563476562	1171.41259765625	986.7255249023438	782.2100219726562	1178.55322265625	972.6373901367188	940.7332763671875	1161.177734375	1057.233520507812	633.2612915039062	1174.067993164062	1069.799194335938	690.8909912109375	1188.46435546875	994.3214111328125	693.4725952148438	1184.54296875	1099.516845703125	1576.071166992188	978.6961669921875	1301.178344726562	1603.526733398438	942.1612548828125	1218.193725585938	1606.265380859375	1042.376586914062	1199.22021484375	1575.561889648438	832.0293579101562	1349.171264648438	807.2130126953125	812.2644653320312	1017.91015625	795.7735595703125	1051.52880859375	1138.276977539062	834.994384765625	1088.25390625	1336.646118164062	855.199951171875	930.209228515625	1478.480346679688	437.044921875	988.8057861328125	1457.854736328125	585.6451416015625	934.0372314453125	1461.84033203125	21.96423530578613	966.4078369140625	1497.038330078125	277.6562194824219	991.8133544921875	1567.289794921875	27.63302040100098	1177.4365234375	1496.687622070312	33.85539627075195	1143.83154296875	1574.869995117188	30.15169525146484	1062.140991210938	1389.785766601562	26.00193023681641	962.015869140625	981.7853393554688	421.9743957519531	1020.080871582031	1060.775756835938	647.7952880859375	1100.764892578125	716.57080078125	147.6574401855469	801.4671630859375	892.642822265625	317.3993225097656	964.6400756835938	869.4707641601562	31.90913200378418	830.7852783203125	850.9661254882812	53.49008941650391	780.709716796875	777.142822265625	49.95912551879883	858.7732543945312	708.7044067382812	202.1381225585938	741.5381469726562	
396	3.95	1059.115966796875	892.1530151367188	875.6804809570312	1162.478881835938	884.0880126953125	778.526123046875	1092.377807617188	985.6585693359375	849.2037963867188	1302.554077148438	1195.519775390625	1009.910949707031	1069.670043945312	1108.7822265625	835.5673217773438	1106.692993164062	1378.400024414062	885.4452514648438	1269.765869140625	1306.857421875	980.0634155273438	1005.361083984375	1256.885009765625	926.8906860351562	1138.817993164062	1332.528442382812	786.5167846679688	1269.077758789062	1358.005737304688	779.66357421875	1313.357055664062	1240.191162109375	691.6063232421875	1344.73388671875	1025.397216796875	668.300537109375	1242.245849609375	1013.457702636719	680.02587890625	1374.10693359375	814.2029418945312	737.8338012695312	1370.101928710938	804.9109497070312	664.4417114257812	1363.43310546875	936.3782958984375	666.8635864257812	1355.742431640625	645.7136840820312	724.3828125	1363.419189453125	722.91650390625	663.7440795898438	1379.427856445312	721.8281860351562	732.9828491210938	1072.865600585938	1350.063110351562	1057.572265625	1016.144775390625	1286.464599609375	1109.445068359375	985.68017578125	1000.89111328125	1154.391235351562	966.6600341796875	987.8572998046875	1090.64013671875	1075.960327148438	790.63720703125	1172.171630859375	989.0050048828125	783.6710815429688	1177.993774414062	978.8231811523438	942.71826171875	1162.353881835938	1055.22607421875	633.0001831054688	1172.450927734375	1069.45654296875	690.0038452148438	1187.73974609375	994.1934814453125	694.9888305664062	1183.072143554688	1108.801879882812	1577.756103515625	982.6268310546875	1310.512939453125	1605.532104492188	946.5690307617188	1227.3369140625	1608.150756835938	1046.649291992188	1208.799438476562	1577.4169921875	836.2244873046875	1358.215942382812	808.438232421875	815.9783935546875	1027.198608398438	796.658935546875	1054.89013671875	1147.182983398438	836.4661254882812	1091.915405273438	1345.657958984375	856.4016723632812	933.8397216796875	1484.152709960938	436.6028442382812	991.4028930664062	1464.739013671875	585.0244140625	936.5437622070312	1461.860595703125	22.04839324951172	966.4780883789062	1500.369873046875	276.9267272949219	993.171142578125	1567.145874023438	27.51901245117188	1177.604736328125	1496.6572265625	33.84603118896484	1143.946411132812	1575.076171875	30.03988075256348	1062.218994140625	1389.857666015625	26.05502700805664	962.0371704101562	992.2581176757812	423.1115112304688	1027.867431640625	1069.834838867188	649.1370239257812	1104.750122070312	724.6455688476562	154.0716400146484	806.716796875	902.1151733398438	319.7982177734375	972.0302734375	871.3387451171875	30.35054969787598	831.93310546875	854.5294189453125	54.79562759399414	783.1957397460938	780.871826171875	52.06661224365234	861.1710205078125	718.5540161132812	210.1481018066406	748.0936889648438	
